<?xml version="1.0" standalone="no"?>
<!DOCTYPE svg PUBLIC "-//W3C//DTD SVG 20010904//EN"
 "http://www.w3.org/TR/2001/REC-SVG-20010904/DTD/svg10.dtd">
<svg version="1.0" xmlns="http://www.w3.org/2000/svg"
 width="512.000000pt" height="148.000000pt" viewBox="0 0 512.000000 148.000000"
 preserveAspectRatio="xMidYMid meet">

<g transform="translate(0.000000,148.000000) scale(0.100000,-0.100000)"
fill="#000000" stroke="none">
<path d="M250 1171 c0 -44 3 -51 20 -51 19 0 20 -7 20 -140 0 -133 -1 -140
-20 -140 -17 0 -20 -7 -20 -51 l0 -51 160 4 c150 3 161 4 182 26 20 20 23 33
23 99 -1 70 -3 77 -28 99 l-28 24 28 24 c25 22 28 30 28 90 0 55 -4 70 -23 88
-21 22 -32 23 -182 26 l-160 3 0 -50z m240 -96 l0 -45 -40 0 -40 0 0 45 0 45
40 0 40 0 0 -45z m0 -185 l0 -50 -40 0 -40 0 0 50 0 50 40 0 40 0 0 -50z"/>
<path d="M1594 1210 c-49 -19 -54 -42 -54 -232 0 -173 1 -178 24 -205 24 -28
26 -28 155 -31 l131 -4 0 91 0 91 -55 0 -55 0 0 -40 0 -40 -40 0 -40 0 0 140
0 140 40 0 c36 0 40 -2 40 -25 0 -24 3 -25 55 -25 l55 0 0 75 0 75 -117 -1
c-65 0 -128 -4 -139 -9z"/>
<path d="M2930 1170 c0 -43 3 -50 20 -50 19 0 20 -7 20 -140 0 -133 -1 -140
-20 -140 -17 0 -20 -7 -20 -50 l0 -50 75 0 74 0 3 118 3 117 60 -117 60 -118
72 0 73 0 0 50 c0 38 -4 50 -15 50 -13 0 -15 22 -15 140 0 118 2 140 15 140
11 0 15 12 15 50 l0 50 -75 0 -75 0 -1 -117 0 -118 -60 118 -59 117 -75 0 -75
0 0 -50z"/>
<path d="M2900 534 c0 -12 -6 -15 -22 -10 -41 13 -50 11 -65 -11 -10 -15 -11
-23 -4 -23 6 0 11 7 11 16 0 12 6 15 23 10 40 -13 49 -11 64 12 10 14 11 22 4
22 -6 0 -11 -7 -11 -16z"/>
<path d="M2120 490 c-12 -7 -12 -12 -2 -22 9 -9 12 -9 12 1 0 7 5 9 10 6 6 -4
8 -16 4 -28 l-6 -22 23 22 c19 18 20 24 9 37 -14 18 -28 20 -50 6z"/>
<path d="M3730 455 c-19 -19 -31 -35 -27 -35 20 0 88 42 85 52 -8 23 -24 18
-58 -17z"/>
<path d="M1514 465 c-8 -21 2 -45 19 -45 8 0 20 7 27 15 10 12 10 18 0 30 -7
8 -19 15 -27 15 -7 0 -16 -7 -19 -15z"/>
<path d="M2674 465 c-8 -21 2 -45 19 -45 8 0 20 7 27 15 10 12 10 18 0 30 -7
8 -19 15 -27 15 -7 0 -16 -7 -19 -15z"/>
<path d="M2815 454 c-21 -32 -12 -43 15 -19 19 17 21 17 38 2 28 -26 35 -20
15 13 -21 37 -45 38 -68 4z"/>
<path d="M1090 452 c-68 -33 -87 -125 -39 -186 40 -51 137 -58 175 -14 l19 22
-27 -17 c-37 -23 -71 -21 -94 4 -27 30 -27 138 0 168 34 37 90 22 109 -29 3
-8 6 5 6 29 1 33 -2 41 -11 33 -8 -5 -22 -6 -33 -1 -33 13 -68 10 -105 -9z"/>
<path d="M1278 458 c16 -16 16 -210 0 -226 -9 -9 -2 -12 33 -12 l44 0 0 77 c0
67 2 78 18 81 17 3 18 -3 15 -77 l-3 -81 43 0 c39 0 42 2 32 19 -5 11 -10 46
-10 79 0 74 -14 90 -65 74 l-35 -10 0 44 0 44 -42 0 c-33 0 -39 -3 -30 -12z"/>
<path d="M3468 458 c16 -16 16 -210 0 -226 -9 -9 -2 -12 33 -12 l44 0 0 77 c0
67 2 78 18 81 17 3 18 -3 15 -77 l-3 -81 43 0 c39 0 42 2 32 19 -5 11 -10 46
-10 79 0 74 -14 90 -65 74 l-35 -10 0 44 0 44 -42 0 c-33 0 -39 -3 -30 -12z"/>
<path d="M1498 388 c7 -7 12 -40 12 -78 0 -38 -5 -71 -12 -78 -9 -9 0 -12 42
-12 42 0 51 3 42 12 -7 7 -12 43 -12 90 l0 78 -42 0 c-33 0 -39 -3 -30 -12z"/>
<path d="M1648 389 c-38 -15 -40 -59 -3 -59 20 0 25 5 25 26 0 32 33 30 38 -3
3 -18 -6 -27 -42 -43 -46 -22 -59 -39 -50 -65 8 -20 37 -27 66 -16 15 5 30 6
39 0 20 -13 33 -11 55 7 10 8 13 13 7 9 -10 -5 -13 9 -13 52 0 33 -6 67 -13
76 -15 22 -73 30 -109 16z m60 -106 c-3 -30 -25 -42 -34 -19 -6 17 11 46 28
46 5 0 8 -12 6 -27z"/>
<path d="M1928 389 c-31 -18 -21 -54 25 -93 32 -26 39 -38 31 -46 -16 -16 -49
-4 -62 23 -10 20 -11 19 -11 -13 -1 -34 0 -35 43 -38 89 -5 115 62 41 108 -19
12 -35 28 -35 36 0 22 36 16 53 -8 l16 -23 0 30 c1 28 -1 30 -42 32 -23 1 -50
-2 -59 -8z"/>
<path d="M2089 371 c-73 -74 15 -194 99 -135 30 21 28 36 -3 28 -18 -4 -32 -1
-45 11 -31 28 -24 35 31 35 43 0 50 3 45 16 -3 9 -6 20 -6 25 0 18 -41 49 -66
49 -15 0 -38 -12 -55 -29z m69 -19 c3 -17 -2 -22 -17 -22 -22 0 -25 8 -15 35
9 22 28 14 32 -13z"/>
<path d="M2348 388 c7 -7 12 -40 12 -78 0 -38 -5 -71 -12 -78 -9 -9 -2 -12 33
-12 l44 0 0 77 c0 63 3 78 15 78 19 0 27 -119 9 -141 -10 -12 -4 -14 32 -14
l44 0 0 77 c0 63 3 78 15 78 19 0 27 -119 9 -141 -10 -12 -4 -14 35 -14 35 0
45 3 40 12 -5 7 -11 44 -14 82 -6 83 -23 101 -69 75 -27 -16 -30 -16 -45 -1
-13 14 -21 14 -46 5 -17 -6 -30 -7 -30 -2 0 5 -19 9 -42 9 -33 0 -39 -3 -30
-12z"/>
<path d="M2658 388 c16 -16 16 -140 0 -156 -9 -9 0 -12 42 -12 42 0 51 3 42
12 -7 7 -12 43 -12 90 l0 78 -42 0 c-33 0 -39 -3 -30 -12z"/>
<path d="M2799 371 c-73 -74 15 -194 99 -135 30 21 28 36 -3 28 -18 -4 -32 -1
-45 11 -31 28 -24 35 31 35 43 0 50 3 45 16 -3 9 -6 20 -6 25 0 18 -41 49 -66
49 -15 0 -38 -12 -55 -29z m69 -19 c3 -17 -2 -22 -17 -22 -22 0 -25 8 -15 35
9 22 28 14 32 -13z"/>
<path d="M2948 388 c16 -16 16 -140 0 -156 -9 -9 -2 -12 32 -12 l45 0 0 77 c0
67 2 78 18 81 17 3 18 -3 15 -77 l-3 -81 43 0 c32 0 41 3 35 13 -4 6 -10 43
-13 81 -6 81 -21 98 -70 79 -16 -6 -30 -7 -30 -2 0 5 -19 9 -42 9 -33 0 -39
-3 -30 -12z"/>
<path d="M3270 381 c13 -25 13 -187 0 -212 -10 -18 -7 -19 42 -19 40 0 49 3
40 12 -7 7 -12 24 -12 40 0 25 3 27 29 22 44 -9 71 23 71 84 0 74 -14 85 -104
89 -73 3 -76 2 -66 -16z m104 -17 c3 -9 6 -33 6 -54 0 -48 -8 -70 -26 -70 -11
0 -14 17 -14 70 0 53 3 70 14 70 8 0 17 -7 20 -16z"/>
<path d="M3688 388 c16 -16 16 -140 0 -156 -9 -9 0 -12 42 -12 42 0 51 3 42
12 -7 7 -12 43 -12 90 l0 78 -42 0 c-33 0 -39 -3 -30 -12z"/>
</g>
</svg>
